<?xml version="1.0" encoding="utf-8"?>
<!-- Generator: Adobe Illustrator 19.1.0, SVG Export Plug-In . SVG Version: 6.00 Build 0)  -->
<svg version="1.1" id="Layer_1" xmlns="http://www.w3.org/2000/svg" xmlns:xlink="http://www.w3.org/1999/xlink" x="0px" y="0px"
	 viewBox="13 -5.2 35.2 26.2" style="enable-background:new 13 -5.2 35.2 26.2;" xml:space="preserve">
<style type="text/css">
	.st0{fill:#FBD5CA;}
	.st1{fill:#E42728;}
</style>
<g>
	<path class="st0" d="M31.8-3.6c-1.7,0-3.5-1.6-6.7-1.6c-7.3,0-8.6,3-8.9,12.8c-0.7,9.7,3.9,10.9,3.9,10.9s3.8-0.3,0.9-2.7
		c-2.8-2.4,0.2-5.6,0.6-6.4c0.5-0.8,0.6,0.2,0.9,2.1c0,0,0.9,4.2,1.4,6.7c0.5,1.9,0.6,2.5,3.1,2.6c2.5,0.1,4-0.7,3.8-3.9
		c1.3-0.1,3.1-0.1,3.1-0.1s-0.6,3.7,2.2,3.8c2.8,0.1,5.4,1.3,5.6-2.6c0.2-3.8,0.5-6.3,1.6-6.5c0,5.2,1.6,5.4,1.6,3.4
		c0-2.1-1-10.3-1-10.3S42.9-3.8,31.8-3.6z"/>
	<path class="st1" d="M23.2,9c0,0,0.3,0.1,0.7,0.3c0.5,0.1,1.1,0.3,1.9,0.2c0.8-0.1,1.7-0.5,2.6-1.2c0.8-0.7,1.5-1.6,2-2.7
		c0.5-1.1,0.9-2.2,1.1-3.3c0.1-0.6,0.2-1.1,0.2-1.6c0-0.5,0.1-1,0-1.4c0-0.4,0-0.9-0.1-1.2c-0.1-0.4-0.2-0.7-0.2-0.9
		c-0.1-0.3-0.2-0.4-0.2-0.6c-0.1-0.1-0.1-0.2-0.1-0.2s0,0.1,0.1,0.2c0.1,0.1,0.2,0.3,0.3,0.5c0.1,0.2,0.2,0.5,0.3,0.9
		c0.1,0.4,0.1,0.8,0.2,1.2c0,0.5,0,0.9,0,1.5c0,0.5-0.1,1.1-0.1,1.6c-0.1,1.1-0.4,2.3-0.9,3.5c-0.5,1.1-1.2,2.2-2,3
		C28,9.6,27,10.1,26,10.3c-1,0.2-1.8,0.1-2.4-0.1c-0.3-0.1-0.5-0.1-0.6-0.2c-0.1,0-0.2-0.1-0.2-0.1l0,0c-0.3-0.1-0.4-0.4-0.3-0.7
		C22.6,9,22.9,8.8,23.2,9C23.1,9,23.2,9,23.2,9z"/>
	<circle class="st1" cx="21.3" cy="2.6" r="1"/>
</g>
</svg>
