<?xml version="1.0" encoding="utf-8"?>
<!-- Generator: Adobe Illustrator 19.1.0, SVG Export Plug-In . SVG Version: 6.00 Build 0)  -->
<svg version="1.1" id="Layer_1" xmlns="http://www.w3.org/2000/svg" xmlns:xlink="http://www.w3.org/1999/xlink" x="0px" y="0px"
	 viewBox="0 0 20 20" style="enable-background:new 0 0 20 20;" xml:space="preserve">
<style type="text/css">
	.st0{fill:#EFC41D;}
	.st1{fill:#5779BB;}
	.st2{fill:#E42728;}
	.st3{fill:none;stroke:#EFC41D;stroke-miterlimit:10;}
</style>
<g>
	<polygon class="st0" points="4.8,7.7 12.4,15.3 0,19.9 	"/>
	<path class="st1" d="M7.9,7.7L6.5,7.6c0,0,0.3-2.8-1.3-4.3C4.3,2.4,2.8,2.2,0.8,2.6L0.5,1.3c2.5-0.5,4.4-0.2,5.7,1
		C8.3,4.2,7.9,7.6,7.9,7.7z"/>
	<path class="st2" d="M8.2,11.2l-1-0.9c0,0,3-3.3,1.9-7.1l1.3-0.4C11.7,7.3,8.4,11,8.2,11.2z"/>
	<path class="st3" d="M11.7,1.9"/>
	<path class="st1" d="M13.6,4.8l-1.4-0.3c0.4-1.9-1-3.5-1-3.5l1-0.9C12.4,0.2,14.1,2.2,13.6,4.8z"/>
	<rect x="14.9" y="0.6" transform="matrix(0.8255 0.5644 -0.5644 0.8255 3.8504 -8.4706)" class="st2" width="1.4" height="2.8"/>
	<path class="st2" d="M18.9,19.7l-1.4-0.3c0.4-2,0.2-3.5-0.7-4.4c-1.4-1.6-4.2-1.3-4.3-1.2l-0.2-1.4c0.1,0,3.5-0.4,5.5,1.7
		C19.1,15.3,19.4,17.2,18.9,19.7z"/>
	<path class="st1" d="M9.9,13l-0.9-1c0.2-0.1,3.9-3.5,8.4-2.3L17,11C13.3,10,10,12.9,9.9,13z"/>
	<path class="st1" d="M19.1,8.9c0,0-1.6-1.3-3.5-1l-0.3-1.4C17.9,6,19.9,7.7,20,7.8L19.1,8.9z"/>
	<rect x="12.6" y="6.5" transform="matrix(0.5638 0.8259 -0.8259 0.5638 12.341 -7.5729)" class="st2" width="1.4" height="2.8"/>
</g>
</svg>
